<?xml version="1.0" encoding="utf-8"?>
<!-- Generator: Adobe Illustrator 15.0.0, SVG Export Plug-In . SVG Version: 6.00 Build 0)  -->
<!DOCTYPE svg PUBLIC "-//W3C//DTD SVG 1.1//EN" "http://www.w3.org/Graphics/SVG/1.1/DTD/svg11.dtd">
<svg version="1.1" id="Layer_2" xmlns="http://www.w3.org/2000/svg" xmlns:xlink="http://www.w3.org/1999/xlink" x="0px" y="0px"
	 width="48px" height="48px" viewBox="0 0 48 48" enable-background="new 0 0 48 48" xml:space="preserve">
<g>
	<g>
		<path d="M39,41c0,1.644-0.804,3.089-2.027,4H42c0,0,0-2,2-2v-4c-2,0-2-2-2-2h-5.027C38.196,37.911,39,39.356,39,41z
			 M13.563,12.031c0,0-1.313,2.323-2.688,2.281c0.598,0.385,1.56,0.938,3.25,0.688c2.396-0.354,3.161-1.9,3.656-3.563
			c0.217,1.964-0.135,2.75-1.281,3.563c1.854,0,3.282-0.745,3.625-2.719c0.398-2.289,0.292-4.656,2.104-5.156
			c1.526-0.421,2.338,0.571,2.338,0.571s0.778-0.816,2.017-0.654c1.438,0.188,1.724,1.242,2.208,3.104
			c0.521,2,1.927,3.76,3.864,3.823c-0.949-1.218-1.031-2.385-1.031-2.385c1.016,1.536,3,3.417,3,3.417
			c-4.396,0.438-6.332-2.763-6.625-3.979c-0.312-1.292-0.563-2.854-1.541-2.979c-1.124-0.143-1.917,0.979-1.917,0.979
			c-0.021-0.015-1.186-1.831-2.563-0.528c-0.676,0.64-0.501,1.58-0.927,4.091c-0.359,2.117-1.956,3.517-4.597,3.385
			c0.044,0.016,0.088,0.038,0.132,0.051C16.764,17,16.945,17.646,17.071,18c0.416,1.164,1.122,2.325,1.966,3.313
			C19.22,22.513,20.352,25.085,22,26l1.5,6l1.5-6c1.647-0.915,2.779-3.486,2.963-4.687c0.845-0.988,1.551-2.15,1.966-3.313
			c0.1-0.278,0.233-1.004,0.372-1.956c0.388-0.089,0.794-0.293,1.111-0.725c-0.188,1.428-0.387,2.583-0.542,3.017
			c-0.384,1.074-1.005,2.167-1.767,3.155c4.016-0.731,4.146-1.992,4.146-1.992C31.625,17.917,35,17,35,14
			c0-0.664-0.205-1.325-0.59-1.955c0.533-0.111,1.143-0.315,1.84-0.67c-2.52-0.483-3.709-2.208-4.625-5.125S29,1.219,26.281,1.344
			c-1.541,0.071-1.719,0.75-1.719,0.75s-0.89-1.077-3.308-1.077c-3.411,0-5.598,2.452-6.598,5.077s-1.354,4.958-3.938,5.25
			C11.906,12.531,13.563,12.031,13.563,12.031z M13,20.458c0.628,0.628,2.834,1.075,5.131,1.321
			c-0.868-1.061-1.58-2.263-2.002-3.443c-0.087-0.245-0.335-1.037-0.576-2.478c-0.186-0.031-0.359-0.042-0.553-0.087
			c0,0-0.844,0.254-1.866,0.226C13.545,17.756,14.677,19.62,13,20.458z M42.18,35c-0.689-4.154-1.917-8.632-4.055-10
			c-2.27-1.453-5.271-1.853-9.424-2.728C28.884,22.802,29,23.373,29,24c0,3-1.571,6-1.571,6L26,27c0,0-0.796,2.387-1,3
			c-1,3-1,3-1.5,4C23,33,23,33,22,30c-0.204-0.611-1-3-1-3l-1.429,3c0,0-1.571-3-1.571-6c0-0.627,0.117-1.198,0.299-1.728
			c-4.152,0.875-7.154,1.275-9.424,2.728C4.731,27.652,4,42,4,43s1.95,1,2.925,1C7.9,44,11,43,11,43v-9l1,9
			c0,0,2.414,2.652,10,2.968V47h24V35H42.18z M36,34v1h-0.111L36,34z M45,46H23V36h22V46z M26,45h5.027
			C29.804,44.089,29,42.644,29,41s0.804-3.089,2.027-4H26c0,0,0,2-2,2v4C26,43,26,45,26,45z M31,42h2v2h2v-2.001h2V40h-2v-2h-2v2h-2
			V42z"/>
	</g>
</g>
</svg>
